<svg xmlns="http://www.w3.org/2000/svg" aria-hidden="true" style="position:absolute;width:0;height:0;overflow:hidden"><defs><symbol id="icon-Client-1" viewBox="0 0 32 32"><path d="m13.2 12 1.3 1.2H12v6.1h6.4V17l1.4 1.2V12h-6.6zm5.2 4.8-3.8-3.5h3.8v3.5zm-1.2 1.6h-4.1v-4h.3V18h3.8v.3zM14 20.1l-.1.3-.2-.3.1.4v.3h.1v-.3l.3-.4H14zm.2.7v-.2h.4v.2h.1l-.2-.7h-.1l-.3.7h.1zm.2-.6.1.3h-.2l.1-.3zm.6.3v.2H15.7h-.1v-.2h-.2v-.1l.1-.2-.2-.1-.1.2v.2zm.3.2H15v-.2l.2.2zm0-.3-.1-.1v-.1h.1v.1zm1 .3v-.1H16l-.1-.1v-.3h.2v.1h.2l-.1-.1-.2-.1H16l-.1.1c-.1 0 0 .2 0 .2V20.8h.4zm.7 0v-.4l-.1-.2H16.6l-.1.2c-.1 0 0 0 0 .1v.2l.1.1H16.9zm-.1-.4V20.6h-.2l-.1-.1v-.2l.1-.1h.2z"/></symbol><symbol id="icon-Client-2" viewBox="0 0 32 32"><path d="M15.5 11.8H15c-.7 0-1.4.2-2 .5v4.2h.1a7.4 7.4 0 0 1 2-.4v.5H15a6.1 6.1 0 0 0-2.6.8V12a5.6 5.6 0 0 1 2.8-.8h.1a6 6 0 0 1 1 .2v.5l-.7-.1h-.1zm1 .5h.3a6 6 0 0 0 2.8-.7V17a5.6 5.6 0 0 1-3.9.6v-5.3a3.8 3.8 0 0 0 .7.1zm2.6 0-.2.1-.5.2a6.5 6.5 0 0 1-2 .2h-.1V17h.5a5 5 0 0 0 2.2-.5v-4.2zM12.8 19.2h-.1l-.2-.1a.3.3 0 0 0-.2 0v1.2l.1.1H12.7a.3.3 0 0 0 .1-.3h-.1v.1h-.2V19.3h.1v.1h.2a.3.3 0 0 0 0-.2zM13.9 19.2a.3.3 0 0 0-.4 0h-.1V20.4l.1.1c0 .1.1 0 .1 0a.3.3 0 0 0 .3 0v-1a.3.3 0 0 0 0-.2zm-.1.9v.1h-.2V19.3h.1V20.2zM15.3 20.4v-1.3h-.2l-.2.7-.2-.7h-.2v1.3h.2v-.8l.2.6.2-.6v.8h.2zM16.4 19.2h-.5v1.2h.1V20H16.3l.1-.1v-.1a1 1 0 0 0 0-.4v-.1zm-.1.4v.1H16v-.4h.1v.2c0 .1 0 0 0 0zM17.2 19.1h-.1l-.3 1.3h.2v-.3h.3v.3h.2l-.3-1.3zm-.1.9v-.5l.2.5H17zM18.4 19.9l-.2-.8H18v1.3h.2v-.8l.2.8h.2v-1.3h-.2v.8zM19.6 19.1l-.2.5-.1-.5H19l.2.8v.5h.2V20l.3-.8h-.2zM12.2 20.8h.1v.2-.2h.2-.3zM13 20.7l-.1.3h.2v-.3H13zm0 .2v-.1.1zM13.7 21v-.2h.2H13.6v.2H14v-.1h-.2zM14.5 20.7v.3h.1-.1v-.3zM15.1 20.7v.3-.3zM15.7 21v-.3h-.1v.3-.2l.1.2h.1v-.3.2zM16.3 20.9h.2-.2v-.1h.2-.3v.2h.3-.2v-.1zM17.7 20.8h-.2v.2-.1h.2v.1-.3.1zM18.2 20.9h.2-.2v-.1h.2-.2v.2h.2-.2v-.1zM19 20.9c.1-.1 0-.1 0-.1h-.2v.2h.1V21l.1.1h.1v-.1zm0 0v-.1zM19.6 20.9h.1-.1v-.1h.2-.3v.2h.3-.2v-.1z"/></symbol><symbol id="icon-Client-3" viewBox="0 0 32 32"><path d="M12.9 19.6v.1h-.5v-.2l-.1-.1v-.2l.2-.1h.4H12.5l-.1.1-.1.2v.1a.2.2 0 0 0 .2.1h.1a.3.3 0 0 0 .2 0zM14 19.4a.3.3 0 0 1 0 .2l-.2.1h-.4c-.1 0 0-.1 0-.2-.1 0-.1-.2 0-.2a.3.3 0 0 1 .1-.2h.5V19.5zm0 0v-.1l-.1-.1h-.4v.3a.2.2 0 0 0 0 .1h.4v-.2zM14.9 19.5l.3-.4v.6-.5l-.3.4-.3-.4v.5h-.1v-.6l.4.4zM15.9 19.5v.2h-.1v-.6h.4V19.5H15.9zm0 0 .2-.1v-.2H16v.2zM17.2 19.7l-.2-.1h-.3v.1h-.1l.2-.6h.1l.3.6zm-.5-.2h.3l-.1-.3-.2.3zM17.7 19l.4.6V19h.1v.6l-.5-.5v.5-.6zM19 19.5v.2h-.1v-.2l-.3-.4h.1l.2.2a.3.3 0 0 1 0 .1l.2-.3h.2l-.3.4zM14.8 18h.2c.6-.3 1.2-.8 1.6-1.3s.7-1.2.6-1.9l-.7-.7c.1.8 0 1.5-.2 2.1s-.8 1.3-1.5 1.7z"/><path d="M14.5 17.9c.8-.4 1.3-1 1.6-1.7s.3-1.5.1-2.2l-1-1a4 4 0 0 1-.7 4.9zM18.2 15.6c-.2.7-.6 1.4-1.2 1.9l-.7.3c.6-.1 1-.3 1.5-.7s.7-.7.9-1.1l-.5-.4z"/><path d="m18 15.5-.6-.6c0 .7-.2 1.3-.6 1.8s-.9 1-1.5 1.3h.4l1.6-1c.5-.4.6-1 .8-1.5zM14.6 12.6 14 12c-.7.2-1.3.6-1.7 1.1s-.6 1.1-.6 1.8.3 1.3.8 1.9 1.1.9 2 1c.6-.7 1-1.6 1-2.5s-.2-1.9-.8-2.7zM19.8 15.4c0-.8-.4-1.6-1-2.2s-1.6-.9-2.6-.9a4 4 0 0 0-1.2.2l4.6 4 .2-1.1z"/></symbol><symbol id="icon-Client-4" viewBox="0 0 32 32"><path d="M10.6 14.3c-.5 0-.8.3-.8.8 0 .4.3.7.8.7.4 0 .8-.3.8-.7 0-.5-.4-.8-.8-.8zM16.6 14c0-.5-.3-1-.7-1.4s-1-.6-1.7-.6c-.6 0-1.2.2-1.6.6s-.7 1-.7 1.5v3s4.7-.4 4.7-3zM8 18.2c0 .4.3.7.6 1s.7.4 1.1.4c.5 0 .9-.1 1.2-.4s.5-.6.5-1V16S8 16.4 8 18.2zm1.7.4-.2-.1-.2-.2v-.2l.1-.2.3-.1c0-.1.1 0 .2 0l.2.2v.2a.4.4 0 0 1 0 .2l-.2.1h-.2zM13 18.3h-.3v.4h-.1v-.8h.5v.1h-.3v.2h.3v.1zm.9 0v.2l-.2.1h-.4v-.1l-.1-.2V18h.1l.2-.1h.2l.1.1v.3zm-.2 0V18l-.2-.1h-.1v.5h.2v-.2zm.7.2v-.1c0-.1-.1 0-.2 0v-.1c-.2 0-.2-.1-.2-.2V18l.1-.1a.4.4 0 0 1 .3 0h.1v.2h-.1l-.1-.1h-.1v.2l.3.1V18.6c0 .1-.1 0-.2 0H14v-.2h.1c0 .1 0 .2.2.2s.1-.1.1-.1zm.9-.5H15v.7H15V18h-.3v-.1h.7v.1zm.6.3h-.4v.2h.4v.2h-.5v-.8h.5v.1h-.4v.2h.4v.1zm.4 0h-.1v.4H16v-.8h.5l.1.2v.1l-.1.1.1.4h-.1l-.2-.3zm-.1 0h.2c.1 0 0-.1 0-.2V18h-.2v.2zm1 0v.4H17v-.8h.5v.1l.1.1v.2h-.4zm0 0h.2V18h-.2v.2zm1 0H18v.2h.4v.2h-.6v-.8h.6v.1h-.4v.2h.3v.1zm.8-.3h-.3v.7h-.1V18h-.3v-.1h.7v.1zm.6.3h-.3v.2h.3v.2h-.5v-.8h.5v.1h-.3v.2h.3v.1zm.4 0H20v.4h-.2v-.8h.5l.1.2v.1l-.1.1.1.4h-.1l-.2-.3zm-.1 0h.2V18h-.2v.2zm1 .2v-.1c0-.1-.1 0-.2 0l-.1-.1-.2-.2V18l.2-.1a.4.4 0 0 1 .3 0 .2.2 0 0 1 .1.2H21l-.2-.1h-.1v.2h.2l.2.1V18.6h-.5v-.2l.2.2h.1v-.1z"/></symbol><symbol id="icon-Client-5" viewBox="0 0 32 32"><path d="m11 18.8.1.2v.2h-.9v-1h.8a.3.3 0 0 1 .1.2v.2h-.2l.2.2zm-.6-.2h.4v-.2l-.2-.1h-.2v.3zm.4.4v-.1l-.1-.1h-.3v.3h.4zM12.2 19.3l-.3-.5h-.2v.5h-.2V18h.5l.3.1.1.2v.3l-.3.1.3.5h-.2zm-.5-.6h.3l.2-.2v-.1c-.1 0-.2-.1-.2 0h-.3v.3zM13.6 19H13v.3h-.3l.5-1.2h.2l.5 1.2h-.3V19zm-.1-.1-.2-.5-.2.5h.4zM15.3 19.3h-.2l-.6-.8v.8h-.3V18h.3l.6.8v-.8h.2v1.2zM16.8 19l-.3.2h-.8v-1h.8l.3.2v.6zm-.3 0v-.6H16v.7h.1l.4-.1zM13.7 11.6s3.3 1.2 3.2 2.8v2.8s-3.3-1.2-3.2-2.8v-2.8zM19.9 16.5c.6-.4 1.3-.6 2-.7V15c-.8.3-1.6.8-2 1.5z"/><path d="M19.5 16.8c.5-1 1.4-1.7 2.4-2v-2.5s-4.6 1.6-4.5 4v3.9l.5-.2v-.4c.1-1.1.7-2.1 1.6-2.8z"/><path d="m19 18.3.2-.8a3.7 3.7 0 0 0-1 2.3c.3 0 .6-.2 1-.4-.2-.4-.2-.8-.2-1.1zM19.2 18.3v1c1.4-.7 2.8-1.8 2.7-3V16c-.9.1-1.7.5-2.4 1l-.3 1.2z"/></symbol><symbol id="icon-Client-6" viewBox="0 0 32 32"><path d="M16 15.5v-1.3l.5-.1.3.1c.1 0 .2.2.1.3v.2h-.3V14.3l-.1-.1h-.1l-.1.1v1H16.7V15h.3v.4l-.4.1H16zM17.4 15.5l-.2-.4v-.5c0-.2 0-.3.2-.4l.4-.1.3.1.2.4v.5c0 .2 0 .3-.2.4l-.3.1h-.4zm.5-.1V14.3h-.2l-.1.2V15.4H18zM18.6 14.1h.4l.2 1 .3-1h.3v1.5h-.2v-1l-.3 1h-.2l-.2-1v1h-.3v-1.5zM20.2 14.1h.5c.3 0 .5.1.5.4 0 .3-.2.4-.5.4h-.2v.7h-.3v-1.5zm.4.7h.1l.1-.1V14.4l-.2-.1v.5zM21.6 14.1h.4l.3 1.5H22v-.3h-.3l-.1.3h-.3l.3-1.5zm.3 1-.1-.6-.1.6h.2zM22.6 14.1h.2l.5.9V14h.2v1.5h-.2l-.4-.9v1h-.3V14zM24.1 15l-.3-.9h.3l.2.6.2-.6h.3l-.3 1v.5H24V15zM16.6 16.3h-.3v.7h-.1v-.6h-.3v-.1h.7zM17.4 17h-.1l-.1-.2h-.4v.2h-.2l.4-.7.4.7zm-.5-.3h.3l-.2-.3-.1.3zM18 17l.1-.1c.1 0 0 0 0 0v-.2H18h.2v.2a.5.5 0 0 1-.2 0h-.4v-.5c0-.1.1 0 .2 0l.1-.1a.7.7 0 0 1 .2 0s.1 0 .1 0v.1h-.5v.4l.1.1h.1zM19 17h.3-.4v-.7.6zM19.7 17h-.1v-.7.7zM20 16.3h.1l.5.5v-.5.7l-.5-.6v.6-.7zM21.5 16.3H21v.3h.3-.3v.3h.4-.5v-.6h.5zM10 12l4.9 1.2v4.1L10 16.2V12zm-.3-.4v4.8l5.5 1.3V13l-5.5-1.4z"/><path d="m12.6 19.9-5.4-1.3v-4.8l5.4 1.4v4.7z"/><path d="m9.8 12 4.8 1.1-2 1.8-4.9-1.2 2-1.8zm-.1-.4-2.5 2.2 5.4 1.4 2.6-2.2-5.5-1.4zM13 19.6l2.2-1.9-2.3-.5v2.4z"/></symbol><symbol id="icon-linkedin-1" viewBox="0 0 32 32"><path d="M32 32V20.3c0-5.8-1.2-10.2-8-10.2a7 7 0 0 0-6.2 3.4h-.1v-2.9h-6.4V32H18V21.4c0-2.8.6-5.5 4-5.5s3.5 3.2 3.5 5.7V32H32zM.5 10.6h6.7V32H.5V10.6zM3.8 0C1.8 0 0 1.7 0 3.8s1.7 4 3.8 4c2.2 0 3.9-1.8 3.9-4C7.7 1.8 6 0 3.8 0z"/></symbol><symbol id="icon-facebook-1" viewBox="0 0 32 32"><path d="M21.3 5.3h3v-5C23.6.1 22 0 20 0c-4.2 0-7.1 2.6-7.1 7.5V12H8.2v5.7H13V32h5.7V17.7h4.5l.7-5.7h-5.2V8c0-1.6.4-2.7 2.7-2.7z"/></symbol><symbol id="icon-twitter-1" viewBox="0 0 32 32"><path d="M32 6c-1.2.6-2.5 1-3.8 1.1 1.4-.8 2.4-2 3-3.6-1.4.7-2.8 1.3-4.3 1.6a6.6 6.6 0 0 0-11.2 6A18.6 18.6 0 0 1 2.2 4.2a6.6 6.6 0 0 0 2 8.8c-1 0-2-.4-3-.8 0 3.2 2.4 5.9 5.3 6.5a6.5 6.5 0 0 1-3 0 6.6 6.6 0 0 0 6.2 4.6A13.2 13.2 0 0 1 0 26.1 18.5 18.5 0 0 0 28.7 9.5c1.3-1 2.4-2 3.3-3.4z"/></symbol><symbol id="icon-instagram-2" viewBox="0 0 32 32"><path d="M32 9.4c-.1-1.7-.4-2.9-.8-3.9s-1-2-1.8-2.8A7.9 7.9 0 0 0 26.5.8c-1-.4-2.1-.6-3.8-.7A109.5 109.5 0 0 0 5.6.8c-1 .4-2 1-2.9 1.9C2 3.5 1.3 4.5 1 5.5.5 6.5.2 7.7.2 9.4a109.5 109.5 0 0 0 .7 17c.4 1.2 1 2.1 1.8 3 .8.7 1.8 1.4 2.9 1.8 1 .4 2.2.6 3.9.7a117.2 117.2 0 0 0 17-.7 8.2 8.2 0 0 0 4.7-4.7c.4-1 .7-2.2.8-3.9V9.4zm-3 13c0 1.6-.2 2.5-.5 3a5.3 5.3 0 0 1-3 3c-.6.3-1.4.6-3 .6a112.7 112.7 0 0 1-15.9-.5 5 5 0 0 1-1.8-1.2 5 5 0 0 1-1.2-1.9c-.2-.5-.5-1.4-.5-3a112.7 112.7 0 0 1 .5-15.8c.3-.7.7-1.3 1.2-1.9a5 5 0 0 1 1.8-1.1c.6-.3 1.5-.5 3-.6a112.7 112.7 0 0 1 15.9.6 5 5 0 0 1 1.8 1.1 5 5 0 0 1 1.2 1.9c.3.5.5 1.4.6 3a112.7 112.7 0 0 1 0 12.9z"/><path d="M16 7.8a8.2 8.2 0 1 0 0 16.4 8.2 8.2 0 0 0 0-16.4zm0 13.5a5.3 5.3 0 1 1 0-10.6 5.3 5.3 0 0 1 0 10.6zM26.5 7.5a2 2 0 1 1-3.8 0 2 2 0 0 1 3.8 0z"/></symbol><symbol id="icon-smartphone" viewBox="0 0 32 32"><path d="M23 0H9a3 3 0 0 0-3 3v26a3 3 0 0 0 3 3h14a3 3 0 0 0 3-3V3a3 3 0 0 0-3-3zM9 2h14c.6 0 1 .4 1 1v21H8V3c0-.6.4-1 1-1zm14 28H9a1 1 0 0 1-1-1v-3h16v3c0 .6-.4 1-1 1z"/><path d="M10.7 27.5c.4.3.4 1 0 1.3s-1 .4-1.4 0c-.4-.4-.4-1 0-1.3s1-.4 1.4 0z"/></symbol><symbol id="icon-envelope" viewBox="0 0 32 32"><path d="M29 4H3a3 3 0 0 0-3 3v18a3 3 0 0 0 3 3h26a3 3 0 0 0 3-3V7a3 3 0 0 0-3-3zm0 2h.4L16 17.8 2.6 6 3 6h26zm0 20H3a1 1 0 0 1-1-1V8.2l13.3 11.6a1 1 0 0 0 1.4 0L30 8.2V25c0 .6-.4 1-1 1z"/></symbol><symbol id="icon-astronaut-1" viewBox="0 0 32 32"><path d="M32 4.5c0-.2-.3-.3-.5-.3l-1.9-.3-.8-1.7c-.2-.4-.8-.4-1 0L27 3.9l-2 .3a.5.5 0 0 0-.2.9L26 6.4l-.3 2c0 .1 0 .3.2.4.2.2.4.2.6 0l1.7-.8 1.7.9a.5.5 0 0 0 .8-.6l-.3-1.9 1.3-1.3c.2-.2.2-.4.2-.6zM29.5 6c-.1 0-.2.2-.1.4l.1 1.1-1-.5a.5.5 0 0 0-.4 0l-1 .5.1-1-.1-.5-.8-.8 1.1-.2c.2 0 .3-.1.4-.3l.5-1 .5 1c0 .2.2.3.4.3l1.1.2-.8.8zM26.1 20.5h-1v1h1v-1zM26.1 22.7h-1v1h1v-1zM27.2 21.6h-1v1h1v-1zM25 21.6h-1v1h1v-1zM22.4 26.4h-1v1h1v-1zM22.4 28.5h-1v1h1v-1zM23.5 27.5h-1.1v1h1v-1zM21.3 27.5h-1v1h1v-1zM16 24.3h-1v1h1v-1zM16 26.4h-1v1h1v-1zM17 25.3h-1v1h1v-1zM15 25.3h-1.1v1h1v-1zM5.9 6.1H4.8v1h1v-1zM5.9 8.3H4.8v1h1v-1zM7 7.2H5.8v1h1v-1zM4.8 7.2h-1v1h1v-1z"/><path d="M24.7 14.2c-.3-.4-.7-.7-1.2-.7-.5-.1-1 0-1.3.3l-1.3 1-1.9 1.4-1.3-.6a7 7 0 0 0-2.9-13.2A7 7 0 0 0 9 13H6l-3.2 1.6-2 1a1.8 1.8 0 0 0 1 3.2c.3 0 .6 0 .8-.2L4 18l2.3-1.2h1.3l-5.4 5.4-1.3 1.3a1.7 1.7 0 0 0 0 2.4 1.7 1.7 0 0 0 2.3 0l1.3-1.3 1.8-1.3.9.9-1.8 1.7-1.3 1.4a1.7 1.7 0 0 0 0 2.3 1.7 1.7 0 0 0 2.3 0l3.5-3.4 1-1 5.2-5.7 3.5.5h.2l.1-.1 3.3-2.1 1.3-1.3c.7-.6.8-1.6.2-2.3zM2.1 17.8h-.5a.7.7 0 0 1-.2-1.2l1.3-.7.4 1.3-1 .6zm3.5-1.9-1.5.8-.5-1.2 2-1v1.4zm15.1-6.6c0 1-.2 1.8-.6 2.6l-4.2-2c0-.5-.3-1-.7-1.3l1.4-4.9c2.4.8 4.1 3 4.1 5.6zM9 9.3a5.9 5.9 0 0 1 6.7-5.8L14 8.3a1.9 1.9 0 1 0 0 3.7c.7 0 1.3-.4 1.6-1l3.9 1.8A5.9 5.9 0 0 1 8.9 9.3zm6 .8a.8.8 0 0 1-1.6 0 .8.8 0 0 1 1.6 0zm-12.4 15c-.3.3-.7.3-.9 0a.6.6 0 0 1 0-.8l1-1 .8.9-1 1zM5.7 29c-.3.2-.6.2-.9 0a.6.6 0 0 1 0-.9l1-1 .8 1-1 .9zm3.5-3.5-1.8 1.8-.9-.9 1.8-1.7.1-.2v-.5h-.1l-1.6-1.7h-.1l-.1-.1H6l-1.8 1.4-.9-1 2.4-2.3 4.4 4.3-1 1zm6.8-7a.6.6 0 0 0-.4 0v.1l-4.8 5.2-4.3-4.2 2.8-2.9a.5.5 0 0 0-.4-.9H6.7v-1.6H10a7 7 0 0 0 6.2 2l.1.1 2.5 1 .1.7.2 1-3-.5zm4 .2-.3-1.6 1.5-1 .9 1.2-2 1.4zm3.8-2.9-.9.8-.9-1.2.8-.6c.2-.2.4-.2.6-.2a.7.7 0 0 1 .4 1.2z"/><path d="m13.6 18.5-2.1-2a.5.5 0 0 0-.8 0l-2.1 2a.5.5 0 0 0 0 .8l2.1 2.1a.5.5 0 0 0 .8 0l2.1-2.1a.5.5 0 0 0 0-.8zm-2.5 1.8-1.4-1.4 1.4-1.4 1.4 1.4-1.4 1.4zM17.2 5l-.3 1.1s1.7.5 1.7 2.2h1.1c0-2-1.7-3-2.5-3.2zM19.7 9.3h-1v1h1v-1z"/></symbol><symbol id="icon-diagram-1" viewBox="0 0 32 32"><path d="M15 15h1v4.8h-1V15zM19.2 17.1h1v2.7h-1V17zM10.7 18.7h1v1h-1v-1zM7.5 18.2h1v1.6h-1v-1.6z"/><path d="M1.6 28.3h25.6c.9 0 1.6-.7 1.6-1.6v-2.1c0-1-.7-1.6-1.6-1.6h-.5V9.7l3-2.9a1.6 1.6 0 1 0-.8-.8l-2.2 2.2V7c0-1-.8-1.6-1.6-1.6H3.7c-.9 0-1.6.7-1.6 1.6v16h-.5c-.9 0-1.6.7-1.6 1.6v2c0 1 .7 1.7 1.6 1.7zM30.4 4.8a.5.5 0 1 1 0 1.1.5.5 0 0 1 0-1zM3.2 7c0-.3.2-.6.5-.6h21.4c.2 0 .5.3.5.6v2.2l-1 1V8c0-.3-.3-.5-.6-.5H4.8c-.3 0-.5.2-.5.5v13.4c0 .3.2.5.5.5H24c.3 0 .5-.2.5-.5v-9.7l1-1V23H3.3V7zM8 13.9a1.6 1.6 0 1 0 1.1 2.7l1.9 1 .6-.1 4-4.5 3.8 3 .7-.1 3.4-3.2v8.1H5.3V8.6h18.2v2.6l-3.8 3.6-4-3a.5.5 0 0 0-.6.1l-4 4.5-1.5-.7v-.2c0-.9-.7-1.6-1.6-1.6zm.5 1.6a.5.5 0 1 1-1 0 .5.5 0 0 1 1 0zm3.2 8.5h5.4v.6c0 .3-.3.5-.6.5h-4.2a.5.5 0 0 1-.6-.5V24zm-10.6.6c0-.3.2-.6.5-.6h9v.6c0 .8.8 1.6 1.7 1.6h4.2c1 0 1.6-.8 1.6-1.6V24h9c.4 0 .6.3.6.6v2c0 .4-.2.6-.5.6H1.6a.5.5 0 0 1-.5-.5v-2.1z"/></symbol><symbol id="icon-clock-1" viewBox="0 0 32 32"><path d="M31.3 15.3a15.3 15.3 0 1 0-19.8 14.6h.4l.2-.4 4-12.3a2 2 0 1 0-1-3.6l-5-5.1a.6.6 0 0 0-1 .9l5.2 5c-.4.9-.2 1.8.5 2.4l-3.7 11.7a14 14 0 1 1 10.6-.4l-.4-1.9a.6.6 0 0 0-1-.3l-3.9 3.4a.6.6 0 0 0 .2 1.1l5 1.6a.6.6 0 0 0 .8-.8l-.4-1.8c5.6-2.4 9.3-8 9.3-14.1zM16 14.7a.6.6 0 1 1 0 1.2.6.6 0 0 1 0-1.2zm2 14.8 2.3-2 .6 3-2.8-1z"/><path d="M15.4 3.2v1.3a.6.6 0 1 0 1.2 0V3.2a.6.6 0 0 0-1.2 0zM3.9 14.7a.6.6 0 0 0 0 1.2h1.3a.6.6 0 1 0 0-1.2H3.9zM28.1 16a.6.6 0 1 0 0-1.3h-1.3a.6.6 0 0 0 0 1.2h1.3z"/></symbol><symbol id="icon-antenna-1" viewBox="0 0 32 32"><path d="m30.8 22.1-8.5-8.5 1-4.6.7.1a2.2 2.2 0 1 0-2-1.4l-5 .6L9 .2a.5.5 0 0 0-.4-.2c-.1 0-.3 0-.4.2L6.7 1.7c-.2.2-.2.5 0 .7l.8.8A15 15 0 0 0 10.2 21v6.7H3.6a2.7 2.7 0 0 0-2.6 2.7v1c0 .4.2.6.5.6h24.5c.3 0 .6-.2.6-.5v-1.1c0-1.5-1.2-2.7-2.7-2.7h-6.4V25a15 15 0 0 0 10-1.5l1 .9.3.1.4-.1 1.5-1.5c.2-.3.2-.6 0-.8zM23.3 6.2a1 1 0 1 1 .7 1.9 1 1 0 0 1-.7-1.9zM22 9.7l-.6 3-1.1-1.2L22 9.7zm-.6-.9-1.9 2L18 9.2l3.4-.5zm2.6 20c.9 0 1.6.7 1.6 1.6v.5H2.1v-.5c0-.9.8-1.6 1.6-1.6H24zm-7.5-2.1v1h-5.3v-1h5.3zm-5.3-1.1v-4c0-1.3 1.2-2.4 2.7-2.4s2.6 1 2.6 2.3v4.1h-5.3zm6.4-1.7v-2.4c0-1.8-1.7-3.4-3.7-3.4-1.4 0-2.6.7-3.3 1.8-4-4.3-5-10.6-2.3-15.9L27 22.7a13.8 13.8 0 0 1-9.3 1.2zm11.3-.7L7.9 2l.7-.7 8 8 13 13.2-.7.7z"/><path d="M13.9 20.3a1.6 1.6 0 1 0 0 3.2 1.6 1.6 0 1 0 0-3.2zm.3 2-.3.1a.5.5 0 0 1 0-1 .5.5 0 0 1 .3.8z"/></symbol></defs></svg>